<svg xmlns="http://www.w3.org/2000/svg" xmlns:xlink="http://www.w3.org/1999/xlink" version="1.1" x="0px" y="0px" viewBox="0 0 100 125" enable-background="new 0 0 100 100" xml:space="preserve"><g display="none"><rect x="-559.379" y="-323.883" display="inline" fill="#000000" width="1376.931" height="568.472"/></g><g><g><path fill="none" d="M61.35,53.484V41.212c0-0.048,0.006-0.094,0.007-0.141V16.376c0-1.37-1.114-2.484-2.483-2.484h-0.356    c-1.369,0-2.483,1.114-2.483,2.484v24.626v10.842c0,0.91-0.227,1.761-0.599,2.531c1.898-0.693,3.84-1.014,5.674-0.916    C61.192,53.462,61.269,53.478,61.35,53.484z"/><path fill="none" d="M49.822,54.327h0.356c1.37,0,2.484-1.114,2.484-2.483V41.002c0-0.792-0.379-1.49-0.958-1.945    c-0.422-0.332-0.948-0.538-1.526-0.538h-0.356c-0.578,0-1.103,0.206-1.526,0.538c-0.579,0.455-0.958,1.153-0.958,1.945v0.091    v10.751C47.338,53.213,48.452,54.327,49.822,54.327z"/><path fill="none" d="M64.73,41.141v13.467c0.288,0.421,0.394,0.961,0.23,1.485c-0.087,0.278-0.242,0.512-0.435,0.704    c-0.282,0.538-0.839,0.909-1.489,0.909c-0.575,0-1.082-0.289-1.386-0.729c-0.177-0.026-0.358-0.04-0.54-0.054    c-2.224-0.176-4.741,0.492-7.038,1.933c-2.335,1.465-3.945,3.44-4.201,5.153c-0.128,0.856-0.865,1.472-1.705,1.472    c-0.085,0-0.171-0.006-0.257-0.019c-0.943-0.141-1.593-1.019-1.453-1.962c0.298-1.998,1.548-4.051,3.458-5.8h-0.092    c-1.501,0-2.858-0.584-3.895-1.516c-1.075,1.266-2.658,2.087-4.444,2.087h-0.356c-3.229,0-5.856-2.628-5.856-5.857v-9.707    l-0.004-21.184c0-1.376-1.114-2.496-2.485-2.496h-0.36c-1.364,0-2.473,1.119-2.473,2.496l0.001,44.872    c0.315,0.805,2.215,4.251,5.369,9.511l0.671,1.107c0.083,0.137,0.165,0.271,0.248,0.407c4.719-0.051,9.475-0.033,14.098-0.009    c2.309,0.012,4.618,0.023,6.926,0.025l12.792-20.265V35.837C67.134,35.862,64.769,38.226,64.73,41.141z"/><path fill="none" d="M41.126,54.899h0.356c1.369,0,2.483-1.114,2.483-2.484v-0.571V41.093c0-0.843-0.424-1.587-1.068-2.036    c-0.402-0.28-0.889-0.447-1.415-0.447h-0.356c-0.526,0-1.013,0.167-1.415,0.447c-0.644,0.449-1.068,1.193-1.068,2.036v11.322    C38.643,53.785,39.757,54.899,41.126,54.899z"/><path d="M70.098,32.464c-2.024,0-3.884,0.697-5.368,1.855V16.376c0-3.229-2.627-5.857-5.856-5.857h-0.356    c-3.229,0-5.856,2.628-5.856,5.857v19.343c-0.757-0.357-1.593-0.573-2.484-0.573h-0.356c-1.654,0-3.143,0.695-4.209,1.802    c-1.06-1.056-2.52-1.71-4.131-1.71h-0.356c-0.893,0-1.73,0.216-2.488,0.575V21.524c0-3.236-2.628-5.869-5.858-5.869h-0.36    c-3.224,0-5.846,2.633-5.846,5.869v6.958v37.825v0.361c0,0.198,0.04,0.385,0.103,0.562c0.011,0.03,0.016,0.063,0.029,0.093    c0,0.001,0.001,0.002,0.001,0.003c0.271,0.814,1.321,2.98,5.682,10.256l0.256,0.378v11.521h2.708v-8.675    c4.994-0.065,10.055-0.044,14.965-0.02c2.299,0.011,4.598,0.02,6.897,0.023v8.672h2.965V79.135l12.987-20.573    c0.021-0.033,0.033-0.069,0.051-0.103c0.031-0.057,0.063-0.113,0.087-0.174c0.02-0.051,0.033-0.104,0.048-0.156    c0.015-0.053,0.033-0.106,0.043-0.16c0.012-0.064,0.015-0.128,0.019-0.192c0.003-0.039,0.012-0.076,0.012-0.116V32.464H70.098z     M56.035,51.844V41.002V16.376c0-1.37,1.114-2.484,2.483-2.484h0.356c1.369,0,2.483,1.114,2.483,2.484v24.695    c-0.001,0.047-0.007,0.093-0.007,0.141v12.272c-0.081-0.006-0.158-0.022-0.24-0.026c-1.835-0.098-3.777,0.223-5.674,0.916    C55.808,53.605,56.035,52.754,56.035,51.844z M47.338,41.093v-0.091c0-0.792,0.379-1.49,0.958-1.945    c0.422-0.332,0.948-0.538,1.526-0.538h0.356c0.578,0,1.103,0.206,1.526,0.538c0.579,0.455,0.958,1.153,0.958,1.945v10.842    c0,1.369-1.114,2.483-2.484,2.483h-0.356c-1.37,0-2.484-1.114-2.484-2.483V41.093z M38.643,41.093    c0-0.843,0.424-1.587,1.068-2.036c0.402-0.28,0.889-0.447,1.415-0.447h0.356c0.526,0,1.013,0.167,1.415,0.447    c0.644,0.449,1.068,1.193,1.068,2.036v10.751v0.571c0,1.37-1.114,2.484-2.483,2.484h-0.356c-1.369,0-2.483-1.114-2.483-2.484    V41.093z M70.053,57.173L57.261,77.438c-2.309-0.003-4.617-0.014-6.926-0.025c-4.624-0.023-9.379-0.042-14.098,0.009    c-0.083-0.137-0.165-0.27-0.248-0.407l-0.671-1.107c-3.154-5.26-5.055-8.706-5.369-9.511l-0.001-44.872    c0-1.376,1.11-2.496,2.473-2.496h0.36c1.37,0,2.485,1.119,2.485,2.496l0.004,21.184v9.707c0,3.229,2.627,5.857,5.856,5.857h0.356    c1.787,0,3.369-0.822,4.444-2.087c1.038,0.932,2.394,1.516,3.895,1.516h0.092c-1.91,1.749-3.16,3.801-3.458,5.8    c-0.141,0.943,0.51,1.822,1.453,1.962c0.086,0.013,0.172,0.019,0.257,0.019c0.841,0,1.577-0.615,1.705-1.472    c0.256-1.713,1.866-3.688,4.201-5.153c2.297-1.441,4.815-2.109,7.038-1.933c0.181,0.014,0.363,0.028,0.54,0.054    c0.304,0.44,0.811,0.729,1.386,0.729c0.65,0,1.207-0.371,1.489-0.909c0.193-0.192,0.349-0.426,0.435-0.704    c0.164-0.525,0.058-1.064-0.23-1.485V41.141c0.039-2.915,2.404-5.279,5.323-5.304V57.173z"/></g></g><text x="0" y="115" fill="#000000" font-size="5px" font-weight="bold" font-family="'Helvetica Neue', Helvetica, Arial-Unicode, Arial, Sans-serif">Created by Oksana Latysheva</text><text x="0" y="120" fill="#000000" font-size="5px" font-weight="bold" font-family="'Helvetica Neue', Helvetica, Arial-Unicode, Arial, Sans-serif">from the Noun Project</text></svg>