<svg xmlns="http://www.w3.org/2000/svg" xmlns:xlink="http://www.w3.org/1999/xlink" version="1.1" x="0px" y="0px" viewBox="-255 347 100 125" style="enable-background:new -255 347 100 100;" xml:space="preserve"><path d="M-183.5,407.1c-1.3-1.7-2.9-3-4.4-4.2c-0.3-0.2-0.6-0.5-0.9-0.7l3.8-27.5c0.4-3.7-2.3-7.1-6-7.5c-1.8-0.2-3.6,0.3-5,1.5  c-1.4,1.1-2.3,2.8-2.5,4.6l-1,10c-0.8-0.5-1.8-0.8-2.9-0.8h-0.5c-1.6,0-3,0.7-4,1.7c-1-1.1-2.4-1.7-4-1.7h-0.5c-1.1,0-2,0.3-2.9,0.8  l-1-10.1c-0.2-1.8-1.1-3.4-2.5-4.5c-1.4-1.1-3.2-1.7-5-1.5c-3.7,0.4-6.4,3.8-6,7.5l0.1,0.5c0.9,8.6,1.9,17.6,2.8,26.4  c0.2,1.5,0.3,3.1,0.4,4.7c0.5,6.6,1,13.5,4.4,19.3c0.7,1.2,1.5,2.3,2.4,3.3v6.4c0,0.8,0.7,1.5,1.5,1.5s1.5-0.7,1.5-1.5v-7  c0-0.4-0.2-0.8-0.4-1.1c-0.9-0.9-1.7-1.9-2.4-3.1c-3-5.2-3.5-11.7-4-18c-0.1-1.6-0.2-3.2-0.4-4.8c-0.9-8.8-1.9-17.7-2.8-26.4  l-0.1-0.5c-0.2-2.1,1.3-3.9,3.3-4.2c1-0.1,2,0.2,2.8,0.8c0.8,0.6,1.3,1.5,1.4,2.5l1.3,14v0.1c0,0.1,0,0.3,0,0.5v20.7  c0,3,2.5,5.5,5.5,5.5h0.5c1.5,0,2.8-0.6,3.8-1.6c0.8,0.9,1.9,1.6,3.2,1.8c-2.8,2.4-4.5,6-4.5,9.9c0,0.8,0.7,1.5,1.5,1.5  c0.8,0,1.5-0.7,1.5-1.5c0-5.6,4.6-10.2,10.2-10.2l0,0l0,0c0.8,0,1.5-0.7,1.5-1.5c0-0.5-0.2-0.9-0.5-1.1l-13.7-13.4  c-1.1-0.9-1.2-2.5-0.3-3.5l0.9-1c0.9-1.1,2.5-1.2,3.5-0.3l12.4,10.5c0.6,0.5,1.1,0.9,1.7,1.4c1.5,1.2,2.8,2.2,3.9,3.6  c3.5,4.8,0.7,10.8-2.7,14.5c-0.2,0.2-0.6,0.6-1.1,0.9c-0.9,0.7-1.9,1.5-2.4,2.4c-0.3,0.7-0.3,1.3-0.2,1.8v0.2c0,0.5,0,1,0,1.6  c0,1.2,0,2.4,0,3.6v1.2c0,0.8,0.7,1.5,1.5,1.5s1.5-0.7,1.5-1.5v-1.2c0-1.2,0-2.5,0-3.7c0-0.5,0-1.1,0-1.6c0-0.1,0-0.2,0-0.4  c0-0.1,0-0.3,0-0.3c0.1-0.3,1-0.9,1.4-1.3c0.5-0.4,1-0.8,1.4-1.2C-182.2,420.8-178.9,413.3-183.5,407.1z M-195.4,373.6  c0.1-1,0.6-1.9,1.4-2.5s1.8-0.9,2.8-0.8c2.1,0.2,3.6,2.1,3.4,4.1l-3.6,25.6l-5.3-4.5V388c0-0.1,0-0.2,0-0.3c0,0,0,0,0-0.1  L-195.4,373.6z M-205.3,409v-0.1c0-0.1,0-0.2,0-0.2V405l5.3,5c-0.4,0.9-1.3,1.5-2.3,1.5h-0.5C-204.2,411.5-205.3,410.4-205.3,409z   M-210,400.4l1.7,1.6v6.6c0,1.4-1.1,2.5-2.5,2.5h-0.5c-1.4,0-2.5-1.1-2.5-2.5V388c0-1.4,1.1-2.5,2.5-2.5h0.5c1.4,0,2.5,1.1,2.5,2.5  v2.6c-0.5,0.3-1,0.7-1.4,1.1l-0.9,1C-212.5,395-212.2,398.5-210,400.4z M-205.3,389.8V388c0-1.4,1.1-2.5,2.5-2.5h0.5  c1.4,0,2.5,1.1,2.5,2.5v4.9l-2.1-1.8C-202.9,390.2-204.1,389.8-205.3,389.8z"/><polygon points="-205,368.7 -205,363.2 -190.6,363.2 -208.6,357.4 -208.6,362.9 -223,362.9 "/><text x="-255" y="462" fill="#000000" font-size="5px" font-weight="bold" font-family="'Helvetica Neue', Helvetica, Arial-Unicode, Arial, Sans-serif">Created by Alina Oleynik</text><text x="-255" y="467" fill="#000000" font-size="5px" font-weight="bold" font-family="'Helvetica Neue', Helvetica, Arial-Unicode, Arial, Sans-serif">from the Noun Project</text></svg>