<?xml version="1.0" encoding="UTF-8"?>
<svg width="48px" height="80px" viewBox="0 0 48 80" version="1.1" xmlns="http://www.w3.org/2000/svg" xmlns:xlink="http://www.w3.org/1999/xlink">
    <!-- Generator: Sketch 43.2 (39069) - http://www.bohemiancoding.com/sketch -->
    <title>Untitled</title>
    <desc>Created with Sketch.</desc>
    <defs></defs>
    <g id="Page-1" stroke="none" stroke-width="1" fill="none" fill-rule="evenodd">
        <path d="M35.35,43.484 L35.35,31.212 C35.35,31.164 35.356,31.118 35.357,31.071 L35.357,6.376 C35.357,5.006 34.243,3.892 32.874,3.892 L32.518,3.892 C31.149,3.892 30.035,5.006 30.035,6.376 L30.035,31.002 L30.035,41.844 C30.035,42.754 29.808,43.605 29.436,44.375 C31.334,43.682 33.276,43.361 35.11,43.459 C35.192,43.462 35.269,43.478 35.35,43.484 Z" id="Shape"></path>
        <path d="M23.822,44.327 L24.178,44.327 C25.548,44.327 26.662,43.213 26.662,41.844 L26.662,31.002 C26.662,30.21 26.283,29.512 25.704,29.057 C25.282,28.725 24.756,28.519 24.178,28.519 L23.822,28.519 C23.244,28.519 22.719,28.725 22.296,29.057 C21.717,29.512 21.338,30.21 21.338,31.002 L21.338,31.093 L21.338,41.844 C21.338,43.213 22.452,44.327 23.822,44.327 Z" id="Shape"></path>
        <path d="M38.73,31.141 L38.73,44.608 C39.018,45.029 39.124,45.569 38.96,46.093 C38.873,46.371 38.718,46.605 38.525,46.797 C38.243,47.335 37.686,47.706 37.036,47.706 C36.461,47.706 35.954,47.417 35.65,46.977 C35.473,46.951 35.292,46.937 35.11,46.923 C32.886,46.747 30.369,47.415 28.072,48.856 C25.737,50.321 24.127,52.296 23.871,54.009 C23.743,54.865 23.006,55.481 22.166,55.481 C22.081,55.481 21.995,55.475 21.909,55.462 C20.966,55.321 20.316,54.443 20.456,53.5 C20.754,51.502 22.004,49.449 23.914,47.7 L23.822,47.7 C22.321,47.7 20.964,47.116 19.927,46.184 C18.852,47.45 17.269,48.271 15.483,48.271 L15.127,48.271 C11.898,48.271 9.271,45.643 9.271,42.414 L9.271,32.707 L9.267,11.523 C9.267,10.147 8.153,9.027 6.782,9.027 L6.422,9.027 C5.058,9.027 3.949,10.146 3.949,11.523 L3.95,56.395 C4.265,57.2 6.165,60.646 9.319,65.906 L9.99,67.013 C10.073,67.15 10.155,67.284 10.238,67.42 C14.957,67.369 19.713,67.387 24.336,67.411 C26.645,67.423 28.954,67.434 31.262,67.436 L44.054,47.171 L44.054,25.837 C41.134,25.862 38.769,28.226 38.73,31.141 Z" id="Shape"></path>
        <path d="M15.126,44.899 L15.482,44.899 C16.851,44.899 17.965,43.785 17.965,42.415 L17.965,41.844 L17.965,31.093 C17.965,30.25 17.541,29.506 16.897,29.057 C16.495,28.777 16.008,28.61 15.482,28.61 L15.126,28.61 C14.6,28.61 14.113,28.777 13.711,29.057 C13.067,29.506 12.643,30.25 12.643,31.093 L12.643,42.415 C12.643,43.785 13.757,44.899 15.126,44.899 Z" id="Shape"></path>
        <path d="M44.098,22.464 C42.074,22.464 40.214,23.161 38.73,24.319 L38.73,6.376 C38.73,3.147 36.103,0.519 32.874,0.519 L32.518,0.519 C29.289,0.519 26.662,3.147 26.662,6.376 L26.662,25.719 C25.905,25.362 25.069,25.146 24.178,25.146 L23.822,25.146 C22.168,25.146 20.679,25.841 19.613,26.948 C18.553,25.892 17.093,25.238 15.482,25.238 L15.126,25.238 C14.233,25.238 13.396,25.454 12.638,25.813 L12.638,11.524 C12.638,8.288 10.01,5.655 6.78,5.655 L6.42,5.655 C3.196,5.655 0.574,8.288 0.574,11.524 L0.574,18.482 L0.574,56.307 L0.574,56.668 C0.574,56.866 0.614,57.053 0.677,57.23 C0.688,57.26 0.693,57.293 0.706,57.323 C0.706,57.324 0.707,57.325 0.707,57.326 C0.978,58.14 2.028,60.306 6.389,67.582 L6.645,67.96 L6.645,79.481 L9.353,79.481 L9.353,70.806 C14.347,70.741 19.408,70.762 24.318,70.786 C26.617,70.797 28.916,70.806 31.215,70.809 L31.215,79.481 L34.18,79.481 L34.18,69.135 L47.167,48.562 C47.188,48.529 47.2,48.493 47.218,48.459 C47.249,48.402 47.281,48.346 47.305,48.285 C47.325,48.234 47.338,48.181 47.353,48.129 C47.368,48.076 47.386,48.023 47.396,47.969 C47.408,47.905 47.411,47.841 47.415,47.777 C47.418,47.738 47.427,47.701 47.427,47.661 L47.427,22.464 L44.098,22.464 Z M30.035,41.844 L30.035,31.002 L30.035,6.376 C30.035,5.006 31.149,3.892 32.518,3.892 L32.874,3.892 C34.243,3.892 35.357,5.006 35.357,6.376 L35.357,31.071 C35.356,31.118 35.35,31.164 35.35,31.212 L35.35,43.484 C35.269,43.478 35.192,43.462 35.11,43.458 C33.275,43.36 31.333,43.681 29.436,44.374 C29.808,43.605 30.035,42.754 30.035,41.844 Z M21.338,31.093 L21.338,31.002 C21.338,30.21 21.717,29.512 22.296,29.057 C22.718,28.725 23.244,28.519 23.822,28.519 L24.178,28.519 C24.756,28.519 25.281,28.725 25.704,29.057 C26.283,29.512 26.662,30.21 26.662,31.002 L26.662,41.844 C26.662,43.213 25.548,44.327 24.178,44.327 L23.822,44.327 C22.452,44.327 21.338,43.213 21.338,41.844 L21.338,31.093 Z M12.643,31.093 C12.643,30.25 13.067,29.506 13.711,29.057 C14.113,28.777 14.6,28.61 15.126,28.61 L15.482,28.61 C16.008,28.61 16.495,28.777 16.897,29.057 C17.541,29.506 17.965,30.25 17.965,31.093 L17.965,41.844 L17.965,42.415 C17.965,43.785 16.851,44.899 15.482,44.899 L15.126,44.899 C13.757,44.899 12.643,43.785 12.643,42.415 L12.643,31.093 Z M44.053,47.173 L31.261,67.438 C28.952,67.435 26.644,67.424 24.335,67.413 C19.711,67.39 14.956,67.371 10.237,67.422 C10.154,67.285 10.072,67.152 9.989,67.015 L9.318,65.908 C6.164,60.648 4.263,57.202 3.949,56.397 L3.948,11.525 C3.948,10.149 5.058,9.029 6.421,9.029 L6.781,9.029 C8.151,9.029 9.266,10.148 9.266,11.525 L9.27,32.709 L9.27,42.416 C9.27,45.645 11.897,48.273 15.126,48.273 L15.482,48.273 C17.269,48.273 18.851,47.451 19.926,46.186 C20.964,47.118 22.32,47.702 23.821,47.702 L23.913,47.702 C22.003,49.451 20.753,51.503 20.455,53.502 C20.314,54.445 20.965,55.324 21.908,55.464 C21.994,55.477 22.08,55.483 22.165,55.483 C23.006,55.483 23.742,54.868 23.87,54.011 C24.126,52.298 25.736,50.323 28.071,48.858 C30.368,47.417 32.886,46.749 35.109,46.925 C35.29,46.939 35.472,46.953 35.649,46.979 C35.953,47.419 36.46,47.708 37.035,47.708 C37.685,47.708 38.242,47.337 38.524,46.799 C38.717,46.607 38.873,46.373 38.959,46.095 C39.123,45.57 39.017,45.031 38.729,44.61 L38.729,31.141 C38.768,28.226 41.133,25.862 44.052,25.837 L44.052,47.173 L44.053,47.173 Z" id="Shape" fill="#000000" fill-rule="nonzero"></path>
    </g>
</svg>