<?xml version="1.0" encoding="UTF-8"?>
<svg width="48px" height="80px" viewBox="0 0 48 80" version="1.1" xmlns="http://www.w3.org/2000/svg" xmlns:xlink="http://www.w3.org/1999/xlink">
    <!-- Generator: Sketch 43.2 (39069) - http://www.bohemiancoding.com/sketch -->
    <title>Untitled 2</title>
    <desc>Created with Sketch.</desc>
    <defs></defs>
    <g id="Page-1" stroke="none" stroke-width="1" fill="none" fill-rule="evenodd">
        <g id="noun_858840_cc" fill-rule="nonzero" fill="#000000">
            <path d="M45.5,50.1 C44.2,48.4 42.6,47.1 41.1,45.9 C40.8,45.7 40.5,45.4 40.2,45.2 L44,17.7 C44.4,14 41.7,10.6 38,10.2 C36.2,10 34.4,10.5 33,11.7 C31.6,12.8 30.7,14.5 30.5,16.3 L29.5,26.3 C28.7,25.8 27.7,25.5 26.6,25.5 L26.1,25.5 C24.5,25.5 23.1,26.2 22.1,27.2 C21.1,26.1 19.7,25.5 18.1,25.5 L17.6,25.5 C16.5,25.5 15.6,25.8 14.7,26.3 L13.7,16.2 C13.5,14.4 12.6,12.8 11.2,11.7 C9.8,10.6 8,10 6.2,10.2 C2.5,10.6 -0.2,14 0.2,17.7 L0.3,18.2 C1.2,26.8 2.2,35.8 3.1,44.6 C3.3,46.1 3.4,47.7 3.5,49.3 C4,55.9 4.5,62.8 7.9,68.6 C8.6,69.8 9.4,70.9 10.3,71.9 L10.3,78.3 C10.3,79.1 11,79.8 11.8,79.8 C12.6,79.8 13.3,79.1 13.3,78.3 L13.3,71.3 C13.3,70.9 13.1,70.5 12.9,70.2 C12,69.3 11.2,68.3 10.5,67.1 C7.5,61.9 7,55.4 6.5,49.1 C6.4,47.5 6.3,45.9 6.1,44.3 C5.2,35.5 4.2,26.6 3.3,17.9 L3.2,17.4 C3,15.3 4.5,13.5 6.5,13.2 C7.5,13.1 8.5,13.4 9.3,14 C10.1,14.6 10.6,15.5 10.7,16.5 L12,30.5 L12,30.6 L12,31.1 L12,51.8 C12,54.8 14.5,57.3 17.5,57.3 L18,57.3 C19.5,57.3 20.8,56.7 21.8,55.7 C22.6,56.6 23.7,57.3 25,57.5 C22.2,59.9 20.5,63.5 20.5,67.4 C20.5,68.2 21.2,68.9 22,68.9 C22.8,68.9 23.5,68.2 23.5,67.4 C23.5,61.8 28.1,57.2 33.7,57.2 L33.7,57.2 L33.7,57.2 C34.5,57.2 35.2,56.5 35.2,55.7 C35.2,55.2 35,54.8 34.7,54.6 L21,41.2 C19.9,40.3 19.8,38.7 20.7,37.7 L21.6,36.7 C22.5,35.6 24.1,35.5 25.1,36.4 L37.5,46.9 C38.1,47.4 38.6,47.8 39.2,48.3 C40.7,49.5 42,50.5 43.1,51.9 C46.6,56.7 43.8,62.7 40.4,66.4 C40.2,66.6 39.8,67 39.3,67.3 C38.4,68 37.4,68.8 36.9,69.7 C36.6,70.4 36.6,71 36.7,71.5 L36.7,71.7 L36.7,73.3 L36.7,76.9 L36.7,78.1 C36.7,78.9 37.4,79.6 38.2,79.6 C39,79.6 39.7,78.9 39.7,78.1 L39.7,76.9 L39.7,73.2 L39.7,71.6 L39.7,71.2 L39.7,70.9 C39.8,70.6 40.7,70 41.1,69.6 C41.6,69.2 42.1,68.8 42.5,68.4 C46.8,63.8 50.1,56.3 45.5,50.1 Z M33.6,16.6 C33.7,15.6 34.2,14.7 35,14.1 C35.8,13.5 36.8,13.2 37.8,13.3 C39.9,13.5 41.4,15.4 41.2,17.4 L37.6,43 L32.3,38.5 L32.3,31 L32.3,30.7 C32.3,30.7 32.3,30.7 32.3,30.6 L33.6,16.6 Z M23.7,52 L23.7,51.9 L23.7,51.7 L23.7,48 L29,53 C28.6,53.9 27.7,54.5 26.7,54.5 L26.2,54.5 C24.8,54.5 23.7,53.4 23.7,52 Z M19,43.4 L20.7,45 L20.7,51.6 C20.7,53 19.6,54.1 18.2,54.1 L17.7,54.1 C16.3,54.1 15.2,53 15.2,51.6 L15.2,31 C15.2,29.6 16.3,28.5 17.7,28.5 L18.2,28.5 C19.6,28.5 20.7,29.6 20.7,31 L20.7,33.6 C20.2,33.9 19.7,34.3 19.3,34.7 L18.4,35.7 C16.5,38 16.8,41.5 19,43.4 Z M23.7,32.8 L23.7,31 C23.7,29.6 24.8,28.5 26.2,28.5 L26.7,28.5 C28.1,28.5 29.2,29.6 29.2,31 L29.2,35.9 L27.1,34.1 C26.1,33.2 24.9,32.8 23.7,32.8 Z" id="Shape"></path>
            <polygon id="Shape" points="24 11.7 24 6.2 38.4 6.2 20.4 0.4 20.4 5.9 6 5.9"></polygon>
        </g>
    </g>
</svg>